<svg xmlns="http://www.w3.org/2000/svg" viewBox="0 0 800 600">
  <defs>
    <linearGradient id="bgGradient" x1="0%" y1="0%" x2="100%" y2="100%">
      <stop offset="0%" style="stop-color:#f3f4ff;stop-opacity:1" />
      <stop offset="100%" style="stop-color:#e6e6fa;stop-opacity:1" />
    </linearGradient>
  </defs>

  <path d="M100,500 Q50,300 150,200 Q250,50 400,100 Q600,150 700,50 Q750,200 700,400 Q650,550 400,550 Q200,550 100,500 Z" fill="url(#bgGradient)" />
  
  <g transform="translate(680, 80) rotate(-15)">
    <path d="M20,0 L0,20 L20,40 M40,0 L60,20 L40,40 M25,45 L35,-5" stroke="#9da4e0" stroke-width="4" fill="none"/>
  </g>
  <g transform="translate(400, 100)" stroke="#9da4e0" stroke-width="2" fill="none">
    <ellipse cx="20" cy="20" rx="20" ry="8" transform="rotate(0 20 20)"/>
    <ellipse cx="20" cy="20" rx="20" ry="8" transform="rotate(60 20 20)"/>
    <ellipse cx="20" cy="20" rx="20" ry="8" transform="rotate(120 20 20)"/>
  </g>

  <g transform="translate(200, 180)">
    <rect x="0" y="0" width="350" height="220" rx="5" fill="#ffffff" stroke="#5a6372" stroke-width="3" />
    <path d="M175,110 L100,60 M175,110 L250,60 M175,110 L100,160 M175,110 L250,160" stroke="#ccc" stroke-width="2" />
    <ellipse cx="175" cy="110" rx="40" ry="20" fill="none" stroke="#5a6372" stroke-width="2" />
    <rect x="50" y="40" width="30" height="30" fill="#ffeb3b" transform="rotate(-5)" />
    <rect x="270" y="50" width="30" height="30" fill="#ffccbc" transform="rotate(5)" />
    <rect x="60" y="150" width="30" height="30" fill="#c8e6c9" />
    <rect x="260" y="140" width="30" height="30" fill="#b3e5fc" />
  </g>

  <g transform="translate(260, 280)">
    <path d="M15,100 L10,200 M45,100 L50,200" stroke="#8d6e63" stroke-width="24" stroke-linecap="round" />
    <path d="M30,110 L30,20 L50,10" stroke="#5c9aff" stroke-width="45" stroke-linecap="round"/> 
    <circle cx="30" cy="0" r="18" fill="#d7ccc8" />
    <path d="M12,-10 Q30,-25 48,-5 L48,0 Q30,-10 12,0 Z" fill="#5d4037" /> <path d="M45,30 L70,0" stroke="#5c9aff" stroke-width="12" stroke-linecap="round" />
    <circle cx="70" cy="0" r="5" fill="#d7ccc8" /> </g>

  <g transform="translate(480, 280)">
    <path d="M10,120 L5,200 M30,120 L35,200" stroke="#ffcc80" stroke-width="10" stroke-linecap="round" />
    <path d="M20,130 L-10,30 L50,30 Z" fill="#4caf50" />
    <circle cx="20" cy="10" r="16" fill="#ffcc80" />
    <path d="M0,0 Q20,-20 40,0 L45,30 Q20,20 0,30 Z" fill="#2c3e50" /> <path d="M0,40 L-30,50" stroke="#4caf50" stroke-width="10" stroke-linecap="round" />
    <circle cx="-30" cy="50" r="4" fill="#ffcc80" />
  </g>

  <g transform="translate(300, 420)">
    <rect x="140" y="20" width="20" height="100" fill="#90a4ae" />
    <ellipse cx="150" cy="120" rx="40" ry="10" fill="#78909c" />
    <ellipse cx="150" cy="20" rx="160" ry="30" fill="#cfd8dc" />
    
    <path d="M80,10 L120,10 L115,30 L75,30 Z" fill="#546e7a" /> <path d="M80,10 L120,10 L120,-20 L80,-20 Z" fill="#37474f" /> <path d="M160,10 L160,25 Q160,30 170,30 Q180,30 180,25 L180,10 Z" fill="#795548" />
  </g>

  <g transform="translate(600, 350)">
    <rect x="30" y="100" width="5" height="70" fill="#bdbdbd" />
    <rect x="10" y="170" width="45" height="5" fill="#bdbdbd" />
    
    <path d="M10,80 L-20,100 L-20,150" stroke="#3f51b5" stroke-width="18" fill="none" stroke-linecap="round" stroke-linejoin="round"/>
    
    <path d="M15,80 L25,10" stroke="#ff9800" stroke-width="35" stroke-linecap="round" />
    
    <circle cx="25" cy="-10" r="18" fill="#ffcc80" />
    <path d="M10,-20 Q25,-35 40,-20 L40,-15 Q25,-25 10,-15 Z" fill="#212121" /> <path d="M25,20 L5,50" stroke="#ff9800" stroke-width="12" stroke-linecap="round" />
    <rect x="-10" y="40" width="30" height="20" rx="2" fill="#607d8b" transform="rotate(-10)" />
  </g>
</svg>